<?xml version="1.0" encoding="iso-8859-1"?>
<!-- Generator: Adobe Illustrator 16.0.0, SVG Export Plug-In . SVG Version: 6.00 Build 0)  -->
<!DOCTYPE svg PUBLIC "-//W3C//DTD SVG 1.1//EN" "http://www.w3.org/Graphics/SVG/1.1/DTD/svg11.dtd">
<svg version="1.1" id="Layer_1" xmlns="http://www.w3.org/2000/svg" xmlns:xlink="http://www.w3.org/1999/xlink" x="0px" y="0px"
	 width="192.756px" height="192.756px" viewBox="0 0 192.756 192.756" style="enable-background:new 0 0 192.756 192.756;"
	 xml:space="preserve">
<g>
	<polygon style="fill-rule:evenodd;clip-rule:evenodd;fill:#FFFFFF;" points="0,0 192.756,0 192.756,192.756 0,192.756 0,0 	"/>
	
		<line style="fill:none;stroke:#000000;stroke-width:1.3748;stroke-miterlimit:2.6131;" x1="8.694" y1="93.618" x2="130.938" y2="93.618"/>
	<polygon style="fill-rule:evenodd;clip-rule:evenodd;" points="22.594,111.326 17.644,111.326 12.312,95.141 17.644,95.141 
		20.119,103.9 20.5,105.422 21.071,103.9 23.546,95.141 27.545,95.141 22.594,111.326 	"/>
	<path style="fill-rule:evenodd;clip-rule:evenodd;" d="M27.355,99.33h4.569v11.996h-4.569V99.33L27.355,99.33z M27.355,94.95h4.569
		v3.237h-4.569V94.95L27.355,94.95z"/>
	<path style="fill-rule:evenodd;clip-rule:evenodd;" d="M35.352,107.326c0.38,1.143,1.523,1.334,2.475,1.334
		c0.571,0,1.904,0,1.904-0.762c0-0.572-1.523-0.762-2.095-0.762c-2.476-0.381-5.332-0.762-5.332-3.998
		c0-1.334,0.571-2.477,1.714-3.047c1.142-0.762,2.475-0.953,3.808-0.953c2.285,0,4.76,0.762,5.522,3.047l-3.618,0.762
		c-0.381-0.951-1.143-1.143-2.095-1.143c-0.381,0-1.523,0.191-1.523,0.572s0.571,0.57,0.761,0.762c0.571,0,1.523,0.189,2.095,0.189
		c0.952,0.191,2.285,0.381,3.237,0.953c1.143,0.57,1.713,1.713,1.713,3.045c0,3.238-3.618,4.189-6.283,4.189
		c-2.666,0-5.141-0.951-5.903-3.617L35.352,107.326L35.352,107.326z"/>
	<path style="fill-rule:evenodd;clip-rule:evenodd;" d="M50.965,111.326v-2.096l0,0c-0.571,1.523-2.095,2.285-3.618,2.285
		c-0.952,0-1.904-0.189-2.666-0.951s-0.952-1.904-0.952-3.047V99.33h4.569v7.234c0,0.762,0,1.523,1.143,1.523
		c0.381,0,0.952-0.189,1.143-0.57s0.19-0.953,0.19-1.334V99.33h4.57v11.996H50.965L50.965,111.326z"/>
	<path style="fill-rule:evenodd;clip-rule:evenodd;" d="M63.151,105.994c0,1.143-0.19,2.666-1.904,2.666
		c-0.762,0-1.143-0.381-1.143-1.143c0-1.334,1.904-1.715,3.046-1.904V105.994L63.151,105.994z M67.912,111.326
		c-0.381-0.953-0.381-1.715-0.381-2.666v-4.189c0-1.713,0.19-3.236-1.333-4.379c-1.143-0.762-3.047-0.953-4.379-0.953
		c-2.666,0-5.522,0.762-6.284,3.619l4.379,0.381c0-0.953,0.762-1.334,1.714-1.334c1.143,0,1.523,0.572,1.523,1.523v0.191
		c-1.713,0-3.237,0.189-4.76,0.762c-1.713,0.379-3.237,1.713-3.237,3.617c0,2.475,2.094,3.617,4.189,3.617
		c1.714,0,3.047-0.57,3.999-1.904c0,0.572,0,1.143,0.19,1.715H67.912L67.912,111.326z"/>
	<polygon style="fill-rule:evenodd;clip-rule:evenodd;" points="67.912,95.141 72.482,95.141 72.482,111.326 67.912,111.326 
		67.912,95.141 	"/>
	<path style="fill-rule:evenodd;clip-rule:evenodd;" d="M80.098,107.707v-2.855h1.904c0.38,0,0.952,0,1.333,0.189
		c0.571,0.191,0.952,0.762,0.952,1.143c0,0.572-0.381,0.953-0.762,1.143c-0.381,0.381-0.952,0.381-1.333,0.381H80.098
		L80.098,107.707z M75.528,111.326h7.427c1.333,0,3.046,0,4.379-0.953c1.143-0.762,1.523-2.475,1.523-3.809
		c0-1.904-1.143-3.236-3.047-3.617l0,0c1.714-0.381,2.666-1.904,2.666-3.428c0-1.332-0.571-2.666-1.714-3.427
		c-0.952-0.762-2.094-0.952-3.427-0.952h-7.807V111.326L75.528,111.326z M80.098,101.424v-2.666h1.904c0.952,0,1.904,0,1.904,1.334
		c0,0.381-0.19,0.762-0.571,0.951c-0.19,0.381-0.762,0.381-1.333,0.381H80.098L80.098,101.424z"/>
	<path style="fill-rule:evenodd;clip-rule:evenodd;" d="M96.664,105.994c0,1.143,0,2.666-1.904,2.666
		c-0.762,0-1.142-0.381-1.142-1.143c0-1.334,1.904-1.715,3.046-1.904V105.994L96.664,105.994z M101.424,111.326
		c-0.381-0.953-0.381-1.715-0.381-2.666v-4.189c0-1.713,0.191-3.236-1.332-4.379c-1.143-0.762-3.047-0.953-4.38-0.953
		c-2.666,0-5.522,0.762-6.284,3.619l4.379,0.381c0-0.953,0.761-1.334,1.713-1.334c1.143,0,1.523,0.572,1.523,1.523v0.191
		c-1.714,0-3.237,0.189-4.76,0.762c-1.714,0.379-3.047,1.713-3.047,3.617c0,2.475,1.904,3.617,3.999,3.617
		c1.714,0,3.046-0.57,3.999-1.904c0,0.572,0,1.143,0.191,1.715H101.424L101.424,111.326z"/>
	<path style="fill-rule:evenodd;clip-rule:evenodd;" d="M104.471,107.326c0.189,1.143,1.523,1.334,2.666,1.334
		c0.381,0,1.713,0,1.713-0.762c0-0.572-1.713-0.762-2.094-0.762c-2.477-0.381-5.332-0.762-5.332-3.998
		c0-1.334,0.572-2.477,1.713-3.047c1.143-0.762,2.477-0.953,3.809-0.953c2.285,0,4.762,0.762,5.523,3.047l-3.619,0.762
		c-0.381-0.951-1.143-1.143-2.094-1.143c-0.381,0-1.523,0.191-1.523,0.572s0.57,0.57,0.762,0.762c0.57,0,1.523,0.189,2.094,0.189
		c0.953,0.191,2.285,0.381,3.236,0.953c0.953,0.57,1.715,1.713,1.715,3.045c0,3.238-3.617,4.189-6.283,4.189
		s-5.141-0.951-5.902-3.617L104.471,107.326L104.471,107.326z"/>
	<path style="fill-rule:evenodd;clip-rule:evenodd;" d="M112.848,99.33h4.57v11.996h-4.57V99.33L112.848,99.33z M112.848,94.95h4.57
		v3.237h-4.57V94.95L112.848,94.95z"/>
	<path style="fill-rule:evenodd;clip-rule:evenodd;" d="M129.605,106.756c-0.381,3.047-2.666,4.76-5.713,4.76
		c-1.715,0-3.047-0.381-4.379-1.713c-1.143-1.143-1.715-2.857-1.715-4.57c0-3.428,2.477-6.094,6.094-6.094
		c3.047,0,5.332,1.715,5.713,4.762l-4.189,0.189l0,0c-0.191-0.951-0.381-1.713-1.334-1.713c-1.523,0-1.523,1.904-1.523,2.855
		c0,1.143,0,3.047,1.523,3.047c1.143,0,1.334-0.953,1.523-1.904L129.605,106.756L129.605,106.756z"/>
	<polygon style="fill-rule:evenodd;clip-rule:evenodd;" points="52.87,76.671 52.87,68.674 57.82,68.674 57.82,69.626 
		54.012,69.626 54.012,72.101 57.249,72.101 57.249,72.863 54.012,72.863 54.012,76.671 52.87,76.671 	"/>
	<path style="fill-rule:evenodd;clip-rule:evenodd;" d="M59.915,73.244c0-0.952,0.762-1.904,1.714-1.904
		c0.952,0,1.523,0.762,1.523,1.904H59.915L59.915,73.244z M63.151,74.958c-0.19,0.762-0.761,1.142-1.523,1.142
		c-0.571,0-1.143-0.38-1.523-0.952c-0.19-0.381-0.19-0.762-0.19-1.333h4.189c0.19-1.713-0.762-3.237-2.475-3.237
		c-1.904,0-2.856,1.523-2.856,3.237c0,1.523,0.952,3.047,2.856,3.047c1.143,0,2.095-0.571,2.475-1.713L63.151,74.958L63.151,74.958z
		"/>
	<path style="fill-rule:evenodd;clip-rule:evenodd;" d="M70.387,74.196c0,0.952-0.762,1.904-1.904,1.904
		c-0.762,0-1.333-0.19-1.333-0.952c0-1.333,1.523-1.333,2.475-1.333h0.762V74.196L70.387,74.196z M69.625,73.053
		c-0.762,0-1.714,0-2.285,0.381c-0.762,0.19-1.142,0.952-1.142,1.714c0,1.142,0.952,1.713,2.094,1.713
		c0.952,0,1.523-0.381,2.095-1.142v0.952h0.952c-0.19-0.381-0.19-0.762-0.19-1.143v-2.285c0-0.762,0-1.523-0.381-2.095
		c-0.571-0.381-1.333-0.571-1.904-0.571c-1.143,0-2.475,0.381-2.475,1.714l0.762,0.19c0.19-0.952,0.952-1.143,1.713-1.143
		c0.952,0,1.523,0.381,1.523,1.523v0.19H69.625L69.625,73.053z"/>
	<path style="fill-rule:evenodd;clip-rule:evenodd;" d="M76.29,76.861h-0.952c-1.333,0-1.714-0.762-1.714-1.904V71.53h-0.952v-0.762
		h0.952v-1.523h0.952v1.523h1.333v0.762h-1.333v3.618c0,0.571,0.19,0.952,0.952,0.952h0.762V76.861L76.29,76.861z"/>
	<path style="fill-rule:evenodd;clip-rule:evenodd;" d="M81.812,76.671v-1.143l0,0c-0.38,0.762-1.142,1.333-1.904,1.333
		c-0.571,0-1.143-0.19-1.523-0.762c-0.381-0.38-0.381-1.142-0.381-1.713v-3.618h0.952v3.618c0,0.381,0,0.762,0.19,1.142
		c0.19,0.381,0.571,0.571,0.952,0.571s0.762-0.19,1.143-0.571c0.38-0.571,0.38-0.952,0.38-1.523v-3.237h0.952v5.903H81.812
		L81.812,76.671z"/>
	<path style="fill-rule:evenodd;clip-rule:evenodd;" d="M86,70.768v1.333l0,0c0.19-0.762,0.762-1.523,1.714-1.523h0.381v0.952h-0.19
		c-0.762,0-1.333,0.381-1.523,0.952C86,72.863,86,73.244,86,73.814v2.856h-0.952v-5.903H86L86,70.768z"/>
	<path style="fill-rule:evenodd;clip-rule:evenodd;" d="M89.809,70.768h0.761v5.903h-0.761V70.768L89.809,70.768z M89.619,68.674
		h1.142v1.142h-1.142V68.674L89.619,68.674z"/>
	<path style="fill-rule:evenodd;clip-rule:evenodd;" d="M93.998,71.911L93.998,71.911c0.381-0.762,1.143-1.333,1.904-1.333
		s1.333,0.381,1.713,0.952s0.191,1.333,0.191,1.904v3.237h-0.762v-3.618c0-0.381,0-0.762-0.191-1.143
		c-0.19-0.19-0.571-0.571-1.143-0.571c-0.38,0-0.762,0.381-1.142,0.762c-0.381,0.381-0.381,0.952-0.381,1.523v3.046h-0.952v-5.903
		h0.761V71.911L93.998,71.911z"/>
	<path style="fill-rule:evenodd;clip-rule:evenodd;" d="M102.375,74.005c-0.951,0-1.332-0.571-1.332-1.333s0.381-1.333,1.332-1.333
		c0.572,0,1.145,0.571,1.145,1.333S103.137,74.005,102.375,74.005L102.375,74.005z M103.52,70.958
		c-0.383-0.19-0.762-0.381-1.145-0.381c-1.332,0-2.283,0.762-2.283,2.095c0,0.571,0.189,1.142,0.762,1.523
		c-0.572,0.19-0.953,0.571-0.953,1.142c0,0.381,0.381,0.762,0.572,0.952c-0.572,0.19-0.762,0.571-0.762,1.142
		c0,0.571,0.381,1.143,0.951,1.333c0.572,0.19,1.143,0.19,1.713,0.19c1.145,0,2.857-0.19,2.857-1.714
		c0-0.571-0.191-1.142-0.762-1.333c-0.572-0.19-1.334-0.19-1.713-0.19c-0.572,0-1.143,0-1.523,0
		c-0.191-0.191-0.381-0.191-0.381-0.571c0-0.381,0.381-0.572,0.57-0.572c0.191,0,0.381,0,0.381,0
		c0.191,0.191,0.381,0.191,0.381,0.191c0.572,0,1.143-0.191,1.523-0.571c0.57-0.381,0.762-0.762,0.762-1.523
		c0-0.381-0.191-0.952-0.572-1.333c0.191-0.571,0.572-0.762,1.143-0.762l0,0v-0.762h-0.189
		C104.09,69.816,103.709,70.006,103.52,70.958L103.52,70.958z M103.137,76.671c0.572,0,1.334,0,1.334,0.571
		c0,0.381-0.191,0.572-0.572,0.762c-0.379,0.19-1.141,0.19-1.523,0.19c-0.57,0-1.902,0-1.902-0.952c0-0.38,0.381-0.571,0.762-0.761
		l1.332,0.19H103.137L103.137,76.671z"/>
	<polygon style="fill-rule:evenodd;clip-rule:evenodd;" points="9.837,90.761 8.504,90.761 8.504,78.956 10.789,78.956 
		14.216,88.476 17.834,78.956 19.928,78.956 19.928,90.761 18.405,90.761 18.405,80.479 18.405,80.479 14.597,90.761 13.645,90.761 
		9.837,80.479 9.837,80.479 9.837,90.761 	"/>
	<path style="fill-rule:evenodd;clip-rule:evenodd;" d="M22.213,82.002h1.333v8.759h-1.333V82.002L22.213,82.002z M22.023,78.956
		h1.523v1.523h-1.523V78.956L22.023,78.956z"/>
	<path style="fill-rule:evenodd;clip-rule:evenodd;" d="M31.924,87.905c-0.19,1.714-1.333,3.047-3.237,3.047
		c-2.666,0-3.808-2.285-3.808-4.57c0-2.285,1.142-4.57,3.808-4.57c1.904,0,3.046,1.333,3.237,3.046l-1.143,0.19
		c-0.19-1.142-0.761-2.094-2.094-2.094c-1.904,0-2.285,1.904-2.285,3.427c0,1.333,0.381,3.427,2.285,3.427
		c1.142,0,1.904-0.952,2.094-2.095L31.924,87.905L31.924,87.905z"/>
	<path style="fill-rule:evenodd;clip-rule:evenodd;" d="M34.4,82.002v2.094h0.19c0.38-1.142,1.142-2.285,2.475-2.285h0.571v1.333
		h-0.381c-0.952,0-1.713,0.571-2.285,1.333c-0.19,0.762-0.38,1.143-0.38,1.904v4.379h-1.333v-8.759H34.4L34.4,82.002z"/>
	<path style="fill-rule:evenodd;clip-rule:evenodd;" d="M41.635,89.809c-0.762,0-1.523-0.381-1.904-1.143
		c-0.381-0.571-0.572-1.523-0.572-2.285c0-0.762,0.19-1.523,0.381-2.285c0.381-0.761,1.143-1.142,2.095-1.142
		c0.762,0,1.523,0.381,1.904,0.952c0.38,0.762,0.571,1.713,0.571,2.475c0,0.761-0.191,1.523-0.571,2.285
		C43.159,89.428,42.397,89.809,41.635,89.809L41.635,89.809z M41.445,90.952c2.666,0,3.999-2.095,3.999-4.57
		c0-2.285-1.142-4.57-3.808-4.57c-2.476,0-3.999,2.095-3.999,4.57C37.637,88.667,38.779,90.952,41.445,90.952L41.445,90.952z"/>
	<path style="fill-rule:evenodd;clip-rule:evenodd;" d="M47.729,88.286c0.19,1.143,1.523,1.523,2.666,1.523
		c0.952,0,2.095-0.381,2.095-1.333s-0.952-1.333-1.714-1.333l-1.333-0.38c-1.333-0.19-2.666-0.762-2.666-2.285
		c0-1.904,1.714-2.666,3.237-2.666c1.714,0,3.047,0.571,3.428,2.285l-1.143,0.19c-0.381-0.952-1.333-1.333-2.285-1.333
		c-0.762,0-1.904,0.19-1.904,1.333c0,0.762,0.952,1.143,1.714,1.143l1.143,0.19c0.762,0.19,1.333,0.381,1.904,0.762
		c0.761,0.381,0.952,1.142,0.952,1.904c0,1.904-1.904,2.666-3.618,2.666c-1.713,0-3.237-0.762-3.808-2.476L47.729,88.286
		L47.729,88.286z"/>
	<path style="fill-rule:evenodd;clip-rule:evenodd;" d="M58.772,89.809c-0.762,0-1.523-0.381-1.904-1.143
		c-0.381-0.571-0.572-1.523-0.572-2.285c0-0.762,0.191-1.523,0.381-2.285c0.38-0.761,1.142-1.142,2.094-1.142
		c0.762,0,1.523,0.381,1.904,0.952c0.381,0.762,0.571,1.713,0.571,2.475c0,0.761-0.19,1.523-0.571,2.285
		S59.724,89.809,58.772,89.809L58.772,89.809z M58.582,90.952c2.666,0,4.189-2.095,4.189-4.57c0-2.285-1.333-4.57-3.999-4.57
		c-2.476,0-3.998,2.095-3.998,4.57C54.774,88.667,56.106,90.952,58.582,90.952L58.582,90.952z"/>
	<path style="fill-rule:evenodd;clip-rule:evenodd;" d="M68.102,83.145h-2.095v7.616h-1.333v-7.616h-1.523v-1.143h1.523
		c-0.19-1.714,0.571-3.427,2.666-3.237l1.143,0.19v1.143c-0.381-0.19-0.762-0.19-1.143-0.19c-1.333,0-1.333,1.143-1.333,2.095h2.095
		V83.145L68.102,83.145z"/>
	<path style="fill-rule:evenodd;clip-rule:evenodd;" d="M72.862,90.952H71.53c-1.904,0-2.476-1.143-2.476-2.856v-4.951h-1.523
		v-1.143h1.523v-2.095l1.333-0.19v2.285h2.095v1.143h-2.095v5.141c0,1.143,0.381,1.523,1.523,1.523h0.952V90.952L72.862,90.952z"/>
	<polygon style="fill-rule:evenodd;clip-rule:evenodd;" points="97.426,121.607 97.426,114.182 94.95,114.182 94.95,113.23 
		100.854,113.23 100.854,114.182 98.568,114.182 98.568,121.607 97.426,121.607 	"/>
	<path style="fill-rule:evenodd;clip-rule:evenodd;" d="M103.52,117.799c0-0.951,0.76-1.904,1.713-1.904
		c1.143,0,1.713,0.953,1.713,1.904H103.52L103.52,117.799z M106.945,119.703c-0.189,0.762-0.762,1.334-1.713,1.334
		c-0.572,0-1.143-0.381-1.523-0.953c-0.189-0.57-0.189-0.951-0.189-1.523h4.568c0-1.713-0.951-3.428-2.855-3.428
		s-2.857,1.715-2.857,3.428c0,1.715,0.953,3.238,2.857,3.238c1.143,0,2.285-0.762,2.666-1.904L106.945,119.703L106.945,119.703z"/>
	<path style="fill-rule:evenodd;clip-rule:evenodd;" d="M114.943,119.514c-0.191,1.332-1.143,2.285-2.475,2.285
		c-1.904,0-2.666-1.715-2.666-3.238c0-1.713,0.951-3.428,2.666-3.428c1.332,0,2.283,0.953,2.475,2.285l-0.953,0.191
		c0-0.953-0.57-1.523-1.521-1.523c-1.145,0-1.523,1.332-1.523,2.285c0,1.143,0.189,2.666,1.523,2.666
		c0.951,0,1.332-0.762,1.521-1.715L114.943,119.514L114.943,119.514z"/>
	<path style="fill-rule:evenodd;clip-rule:evenodd;" d="M121.035,121.607v-3.617c0-0.381,0-0.953-0.189-1.334s-0.57-0.57-1.143-0.57
		c-0.381,0-0.951,0.189-1.143,0.57c-0.57,0.572-0.57,1.143-0.57,1.715v3.236h-0.953v-8.377h0.953v3.236l0,0
		c0.57-0.762,1.143-1.334,2.094-1.334c0.572,0,1.334,0.381,1.523,0.953c0.381,0.57,0.381,1.143,0.381,1.904v3.617H121.035
		L121.035,121.607z"/>
	<path style="fill-rule:evenodd;clip-rule:evenodd;" d="M125.416,116.467h0.189c0.191-0.762,0.953-1.334,1.904-1.334
		c0.762,0,1.334,0.381,1.715,1.143c0.381,0.381,0.381,1.334,0.381,1.904v3.428h-0.953v-3.809c0-0.381,0-0.951-0.189-1.143
		c-0.191-0.381-0.762-0.57-1.143-0.57c-0.572,0-0.953,0.189-1.334,0.57c-0.381,0.572-0.381,1.143-0.381,1.715v3.236h-0.951v-6.283
		h0.762V116.467L125.416,116.467z"/>
	<path style="fill-rule:evenodd;clip-rule:evenodd;" d="M134.555,121.037c-0.57,0-1.143-0.381-1.332-0.762
		c-0.381-0.572-0.381-1.334-0.381-1.904c0-0.381,0-0.953,0.189-1.523c0.381-0.572,0.953-0.762,1.523-0.762
		c0.572,0,1.143,0.189,1.334,0.57c0.381,0.572,0.381,1.143,0.381,1.715c0,0.57,0,1.143-0.191,1.713
		C135.697,120.656,135.127,121.037,134.555,121.037L134.555,121.037z M134.555,121.799c1.904,0,2.857-1.523,2.857-3.238
		c0-1.713-0.953-3.428-2.857-3.428s-2.855,1.523-2.855,3.238C131.699,120.084,132.65,121.799,134.555,121.799L134.555,121.799z"/>
	<polygon style="fill-rule:evenodd;clip-rule:evenodd;" points="139.697,113.23 140.838,113.23 140.838,121.607 139.697,121.607 
		139.697,113.23 	"/>
	<path style="fill-rule:evenodd;clip-rule:evenodd;" d="M145.98,121.037c-0.762,0-1.143-0.381-1.523-0.762
		c-0.191-0.572-0.381-1.334-0.381-1.904c0-0.381,0.189-0.953,0.381-1.523c0.189-0.572,0.762-0.762,1.523-0.762
		c0.381,0,0.951,0.189,1.332,0.57c0.191,0.572,0.381,1.143,0.381,1.715c0,0.57-0.189,1.143-0.381,1.713
		C147.123,120.656,146.551,121.037,145.98,121.037L145.98,121.037z M145.789,121.799c1.904,0,2.857-1.523,2.857-3.238
		c0-1.713-0.762-3.428-2.666-3.428s-2.857,1.523-2.857,3.238C143.123,120.084,143.885,121.799,145.789,121.799L145.789,121.799z"/>
	<path style="fill-rule:evenodd;clip-rule:evenodd;" d="M153.025,118.752c-0.762,0-1.334-0.572-1.334-1.334
		c0-0.951,0.572-1.523,1.334-1.523s1.523,0.572,1.523,1.523C154.549,118.18,153.977,118.752,153.025,118.752L153.025,118.752z
		 M154.357,115.514c-0.381-0.189-0.951-0.381-1.332-0.381c-1.143,0-2.285,0.762-2.285,2.285c0,0.572,0.189,1.143,0.762,1.523
		c-0.572,0.381-0.953,0.572-0.953,1.143c0,0.572,0.381,0.762,0.572,0.953c-0.572,0.381-0.953,0.762-0.953,1.332
		c0,0.762,0.572,1.143,1.143,1.334c0.572,0.379,1.334,0.379,1.904,0.379c1.143,0,3.047-0.189,3.047-1.902
		c0-0.572-0.381-1.143-0.951-1.334c-0.572-0.189-1.334-0.189-1.904-0.189c-0.381,0-0.953,0-1.523-0.191
		c-0.191,0-0.381-0.189-0.381-0.57c0-0.191,0.381-0.572,0.762-0.572c0,0,0.189,0.191,0.381,0.191c0.189,0,0.189,0,0.381,0
		c0.57,0,1.143-0.191,1.713-0.572c0.381-0.381,0.762-0.951,0.762-1.523c0-0.57-0.189-1.143-0.762-1.523
		c0.191-0.57,0.572-0.762,1.143-0.762h0.191v-0.762h-0.381C154.93,114.371,154.549,114.562,154.357,115.514L154.357,115.514z
		 M153.977,121.607c0.572,0,1.334,0,1.334,0.572c0,0.379-0.191,0.762-0.572,0.762c-0.381,0.189-1.143,0.379-1.523,0.379
		c-0.57,0-2.094-0.189-2.094-1.141c0-0.381,0.381-0.572,0.762-0.762h1.523L153.977,121.607L153.977,121.607z"/>
	<path style="fill-rule:evenodd;clip-rule:evenodd;" d="M159.879,122.18c-0.189,0.57-0.189,0.951-0.57,1.141
		c-0.381,0.572-0.762,0.572-1.334,0.572c-0.189,0-0.379,0-0.762-0.189v-0.762c0.383,0.189,0.572,0.189,0.762,0.189
		c0.953,0,1.143-0.762,1.334-1.523l-2.096-6.283h0.953l1.713,4.76l1.715-4.76h0.762L159.879,122.18L159.879,122.18z"/>
	<polygon style="fill-rule:evenodd;clip-rule:evenodd;" points="160.26,94.569 160.26,85.239 172.256,90.952 172.256,101.043 
		160.26,94.569 	"/>
	<polygon style="fill-rule:evenodd;clip-rule:evenodd;fill:#7E3D8F;" points="161.213,93.808 161.213,86.382 171.875,91.523 
		171.875,99.52 161.213,93.808 	"/>
	<polygon style="fill-rule:evenodd;clip-rule:evenodd;" points="160.26,85.239 171.686,80.289 183.301,85.811 172.828,91.333 
		160.26,85.239 	"/>
	<polygon style="fill-rule:evenodd;clip-rule:evenodd;fill:#7E3D8F;" points="162.164,85.43 171.494,81.431 181.396,86.001 
		172.447,90.571 162.164,85.43 	"/>
	<polygon style="fill-rule:evenodd;clip-rule:evenodd;" points="172.066,91.142 172.256,101.043 183.49,95.521 183.301,85.811 
		172.066,91.142 	"/>
	<polygon style="fill-rule:evenodd;clip-rule:evenodd;fill:#7E3D8F;" points="173.209,91.523 173.209,99.52 182.348,94.95 
		182.348,86.763 173.209,91.523 	"/>
	<polygon style="fill-rule:evenodd;clip-rule:evenodd;" points="143.123,84.858 143.123,75.528 155.119,81.241 155.119,91.333 
		143.123,84.858 	"/>
	<polygon style="fill-rule:evenodd;clip-rule:evenodd;fill:#6284C2;" points="144.076,84.097 144.076,76.671 154.738,81.812 
		154.738,90 144.076,84.097 	"/>
	<polygon style="fill-rule:evenodd;clip-rule:evenodd;" points="143.123,75.528 154.549,70.768 166.164,76.1 155.691,81.622 
		143.123,75.528 	"/>
	<polygon style="fill-rule:evenodd;clip-rule:evenodd;fill:#6284C2;" points="145.027,75.719 154.357,71.72 164.26,76.29 
		155.311,80.86 145.027,75.719 	"/>
	<polygon style="fill-rule:evenodd;clip-rule:evenodd;" points="154.93,81.431 155.119,91.333 166.354,85.811 166.164,76.1 
		154.93,81.431 	"/>
	<polygon style="fill-rule:evenodd;clip-rule:evenodd;fill:#6284C2;" points="156.072,81.812 156.072,89.809 165.211,85.239 
		165.211,77.242 156.072,81.812 	"/>
	<polygon style="fill-rule:evenodd;clip-rule:evenodd;" points="126.748,93.998 126.748,84.668 138.555,90.38 138.744,100.473 
		126.748,93.998 	"/>
	<polygon style="fill-rule:evenodd;clip-rule:evenodd;fill:#C5773E;" points="127.701,93.236 127.701,85.811 138.363,90.952 
		138.363,98.949 127.701,93.236 	"/>
	<polygon style="fill-rule:evenodd;clip-rule:evenodd;" points="126.748,84.668 138.174,79.717 149.787,85.239 139.125,90.761 
		126.748,84.668 	"/>
	<polygon style="fill-rule:evenodd;clip-rule:evenodd;fill:#C5773E;" points="128.463,84.858 137.982,80.86 147.885,85.43 
		138.936,90 128.463,84.858 	"/>
	<polygon style="fill-rule:evenodd;clip-rule:evenodd;" points="138.555,90.571 138.744,100.473 149.979,94.95 149.787,85.239 
		138.555,90.571 	"/>
	<polygon style="fill-rule:evenodd;clip-rule:evenodd;fill:#C5773E;" points="139.506,90.952 139.697,98.949 148.836,94.379 
		148.646,86.191 139.506,90.952 	"/>
	<polygon style="fill-rule:evenodd;clip-rule:evenodd;" points="144.076,95.331 144.076,86.001 155.881,91.713 156.072,101.996 
		144.076,95.331 	"/>
	<polygon style="fill-rule:evenodd;clip-rule:evenodd;fill:#DFCB38;" points="145.027,94.76 145.027,87.143 155.691,92.284 
		155.691,100.473 145.027,94.76 	"/>
	<polygon style="fill-rule:evenodd;clip-rule:evenodd;" points="144.076,86.001 155.5,81.241 167.115,86.572 156.453,92.094 
		144.076,86.001 	"/>
	<polygon style="fill-rule:evenodd;clip-rule:evenodd;fill:#DFCB38;" points="145.789,86.382 155.311,82.383 165.211,86.953 
		156.072,91.333 145.789,86.382 	"/>
	<polygon style="fill-rule:evenodd;clip-rule:evenodd;" points="155.881,91.904 156.072,101.996 167.115,96.283 167.115,86.572 
		155.881,91.904 	"/>
	<polygon style="fill-rule:evenodd;clip-rule:evenodd;fill:#DFCB38;" points="156.834,92.284 157.023,100.281 166.164,95.902 
		165.973,87.714 156.834,92.284 	"/>
	<path style="fill-rule:evenodd;clip-rule:evenodd;" d="M75.147,80.289c0.762,0,1.523,0.571,1.523,1.523
		c0,0.762-0.761,1.333-1.523,1.333c-0.952,0-1.523-0.571-1.523-1.333C73.624,80.86,74.195,80.289,75.147,80.289L75.147,80.289z
		 M75.147,83.525c0.952,0,1.713-0.761,1.713-1.713c0-1.143-0.761-1.904-1.713-1.904c-1.143,0-1.904,0.762-1.904,1.904
		C73.244,82.764,74.005,83.525,75.147,83.525L75.147,83.525z M75.338,81.812c0.38,0,0.762-0.19,0.762-0.571
		c0-0.19-0.19-0.381-0.381-0.381c0-0.19-0.19-0.19-0.38-0.19h-0.952v2.095h0.38v-0.952h0.381l0.571,0.952h0.191L75.338,81.812
		L75.338,81.812z M74.766,81.622V81.05h0.572c0.19,0,0.38,0,0.38,0.19c0,0.381-0.38,0.381-0.761,0.381H74.766L74.766,81.622z"/>
	<path style="fill-rule:evenodd;clip-rule:evenodd;" d="M132.842,99.9c0.762,0,1.332,0.572,1.332,1.334s-0.57,1.523-1.332,1.523
		c-0.953,0-1.523-0.762-1.523-1.523S131.889,99.9,132.842,99.9L132.842,99.9z M132.842,103.139c0.951,0,1.713-0.953,1.713-1.904
		c0-0.953-0.762-1.715-1.713-1.715c-1.143,0-1.904,0.762-1.904,1.715C130.938,102.186,131.699,103.139,132.842,103.139
		L132.842,103.139z M133.031,101.424c0.381,0,0.572-0.189,0.572-0.57c0-0.191,0-0.381-0.191-0.572c-0.189,0-0.381,0-0.381,0h-0.951
		v1.904h0.189v-0.762h0.381l0.572,0.762h0.381L133.031,101.424L133.031,101.424z M132.27,101.043v-0.57h0.572
		c0.381,0,0.57,0,0.57,0.381s-0.381,0.189-0.762,0.189H132.27L132.27,101.043z"/>
	<polygon style="fill-rule:evenodd;clip-rule:evenodd;" points="180.635,100.092 180.635,98.188 180.062,98.188 180.062,97.996 
		181.586,97.996 181.586,98.188 180.824,98.188 180.824,100.092 180.635,100.092 	"/>
	<polygon style="fill-rule:evenodd;clip-rule:evenodd;" points="182.348,100.092 182.158,100.092 182.158,97.996 182.539,97.996 
		183.109,99.711 183.871,97.996 184.252,97.996 184.252,100.092 183.871,100.092 183.871,98.188 183.301,100.092 183.109,100.092 
		182.348,98.188 182.348,98.188 182.348,100.092 	"/>
</g>
</svg>
